<?xml version="1.0"?>
<svg width="1024" height="1024" xmlns="http://www.w3.org/2000/svg" class="icon" version="1.1">
 <g class="layer">
  <title>OpenIAM</title>
  <path d="m623.93,327.8c30.87,51.9 48.72,111.95 48.72,176.07c0,195.39 -164.14,353.77 -366.63,353.77c-27.62,0 -54.51,-3.03 -80.44,-8.61c60.06,130.8 195.74,222.16 353.49,222.16c213.47,0 386.53,-166.99 386.53,-372.97c0,-191.32 -149.31,-348.89 -341.67,-370.41zm-304.04,50.27l-47.28,0l0,-45.62c0,-12.57 -10.61,-22.81 -23.64,-22.81s-23.64,10.24 -23.64,22.81l0,45.62l-47.28,0c-13.03,0 -23.64,10.24 -23.64,22.81s10.61,22.81 23.64,22.81l47.28,0l0,45.62c0,12.57 10.61,22.81 23.64,22.81s23.64,-10.24 23.64,-22.81l0,-45.62l47.28,0c13.03,0 23.64,-10.24 23.64,-22.81s-10.61,-22.81 -23.64,-22.81z" fill="#FFF0C2" id="svg_1" stroke-width="99" transform="translate(-118.571 -297.143) matrix(1 0 0 1 0 0) matrix(1.1268 0 0 1.18947 -10.2245 -15.9533)"/>
  <path d="m218.15,142.03l-44.13,0l0,-42.34c0,-11.67 -9.9,-21.17 -22.06,-21.17c-12.16,0 -22.06,9.5 -22.06,21.17l0,42.34l-44.13,0c-12.16,0 -22.06,9.5 -22.06,21.17c0,11.67 9.9,21.17 22.06,21.17l44.13,0l0,42.34c0,11.67 9.9,21.17 22.06,21.17c12.16,0 22.06,-9.5 22.06,-21.17l0,-42.34l44.13,0c12.16,0 22.06,-9.5 22.06,-21.17c0,-11.67 -9.9,-21.17 -22.06,-21.17z" fill="#FFC445" id="svg_2" stroke-width="99" transform="matrix(1 0 0 1 0 0)"/>
  <path d="m252.62,434.76l-29.28,0l0,-30c0,-8.29 -6.6,-15.05 -14.69,-15.05c-8.09,0 -14.69,6.76 -14.69,15.05l0,30l-29.28,0c-8.09,0 -14.69,6.76 -14.69,15.05c0,8.29 6.6,15.05 14.69,15.05l29.28,0l0,30c0,8.29 6.6,15.05 14.69,15.05c8.09,0 14.69,-6.76 14.69,-15.05l0,-30l29.28,0c8.09,0 14.69,-6.76 14.69,-15.05c0,-8.29 -6.6,-15.05 -14.69,-15.05z" fill="#FFF0C2" id="svg_3" stroke-width="99" transform="matrix(1 0 0 1 0 0)"/>
  <path d="m245.03,438.13l-24.7,0l0,-24.7c0,-6.8 -5.5,-12.4 -12.4,-12.4c-6.8,0 -12.4,5.5 -12.4,12.4l0,24.7l-24.7,0c-6.8,0 -12.4,5.5 -12.4,12.4c0,6.8 5.5,12.4 12.4,12.4l24.7,0l0,24.7c0,6.8 5.5,12.4 12.4,12.4c6.8,0 12.4,-5.5 12.4,-12.4l0,-24.7l24.7,0c6.8,0 12.4,-5.5 12.4,-12.4c0,-6.8 -5.5,-12.4 -12.4,-12.4z" fill="#FFC445" id="svg_4" stroke-width="99"/>
  <path d="m566.56,105.86c32.68,55.35 51.5,119.52 51.5,187.97c0,208.56 -173.71,377.68 -387.94,377.68c-29.25,0 -57.68,-3.21 -85.14,-9.22c63.58,139.71 207.08,237.17 374.07,237.17c225.9,0 409.09,-178.35 409.09,-398.27c0,-204.15 -158.06,-372.47 -361.57,-395.33z" fill="#FFB948" id="svg_5" stroke-width="99"/>
  <path d="m513.73,245.77l-27.5,0l0,-27.5c0,-7.6 -6.2,-13.8 -13.8,-13.8c-7.6,0 -13.8,6.2 -13.8,13.8l0,27.5l-27.5,0c-7.6,0 -13.8,6.2 -13.8,13.8c0,7.6 6.2,13.8 13.8,13.8l27.5,0l0,27.5c0,7.6 6.2,13.8 13.8,13.8c7.6,0 13.8,-6.2 13.8,-13.8l0,-27.5l27.5,0c7.6,0 13.8,-6.2 13.8,-13.8c0,-7.6 -6.2,-13.8 -13.8,-13.8z" fill="#FFF0C2" id="svg_6" stroke-width="99" transform="matrix(1 0 0 1 0 0)"/>
  <path d="m510.96,248.6l-24.7,0l0,-24.7c0,-6.8 -5.5,-12.4 -12.4,-12.4c-6.8,0 -12.4,5.5 -12.4,12.4l0,24.7l-24.7,0c-6.8,0 -12.4,5.5 -12.4,12.4c0,6.8 5.5,12.4 12.4,12.4l24.7,0l0,24.7c0,6.8 5.5,12.4 12.4,12.4c6.8,0 12.4,-5.5 12.4,-12.4l0,-24.7l24.7,0c6.8,0 12.4,-5.5 12.4,-12.4c0,-6.8 -5.5,-12.4 -12.4,-12.4z" fill="#FFC445" id="svg_7" stroke-width="99" transform="matrix(1 0 0 1 0 0)"/>
 </g>
</svg>