<?xml version="1.0" encoding="UTF-8"?>
<svg width="442" height="260" id="_图层_1" data-name="图层 1" xmlns="http://www.w3.org/2000/svg" viewBox="0 0 454.66 260.79">
  <defs>
    <style>
      .cls-1 {
        fill: #979797;
      }

      .cls-2 {
        clip-path: url(#clippath-11);
      }

      .cls-3 {
        clip-path: url(#clippath-16);
      }

      .cls-4 {
        fill: #c4e0d1;
      }

      .cls-4, .cls-5, .cls-6, .cls-7, .cls-8, .cls-9, .cls-10, .cls-11, .cls-12, .cls-13, .cls-14, .cls-15, .cls-16, .cls-17, .cls-18, .cls-19, .cls-20, .cls-21, .cls-22, .cls-23, .cls-24, .cls-25, .cls-26, .cls-27 {
        fill-rule: evenodd;
      }

      .cls-5 {
        fill: #fff;
      }

      .cls-6 {
        fill: #ffe2ac;
      }

      .cls-28 {
        fill: #acc9ff;
      }

      .cls-29 {
        clip-path: url(#clippath-2);
      }

      .cls-30 {
        clip-path: url(#clippath-13);
      }

      .cls-7 {
        fill: #f3f7ff;
      }

      .cls-31 {
        clip-path: url(#clippath-15);
      }

      .cls-32 {
        clip-path: url(#clippath-6);
      }

      .cls-8 {
        fill: #bcd4ff;
      }

      .cls-9 {
        fill: #d3f0e0;
      }

      .cls-33 {
        clip-path: url(#clippath-7);
      }

      .cls-34 {
        clip-path: url(#clippath-1);
      }

      .cls-35 {
        fill: #6ea1ff;
      }

      .cls-36 {
        clip-path: url(#clippath-4);
      }

      .cls-10 {
        fill: #eafff3;
      }

      .cls-11 {
        fill: #edf4ff;
      }

      .cls-12 {
        fill: #d2e2ff;
      }

      .cls-37 {
        clip-path: url(#clippath-12);
      }

      .cls-38, .cls-17 {
        fill: #a4c3fc;
      }

      .cls-13 {
        fill: #c4d6ff;
      }

      .cls-14 {
        fill: #ccdeff;
      }

      .cls-15 {
        fill: #dde9ff;
      }

      .cls-39 {
        clip-path: url(#clippath-9);
      }

      .cls-40 {
        clip-path: url(#clippath);
      }

      .cls-41 {
        fill: none;
      }

      .cls-42 {
        clip-path: url(#clippath-19);
      }

      .cls-43 {
        clip-path: url(#clippath-3);
      }

      .cls-16 {
        fill: #9ebef8;
      }

      .cls-44 {
        clip-path: url(#clippath-8);
      }

      .cls-18 {
        fill: #d3e1ff;
      }

      .cls-45, .cls-21 {
        fill: #ffbb3c;
      }

      .cls-19 {
        fill: #ffca67;
      }

      .cls-46 {
        clip-path: url(#clippath-18);
      }

      .cls-47 {
        clip-path: url(#clippath-14);
      }

      .cls-48 {
        clip-path: url(#clippath-17);
      }

      .cls-49 {
        clip-path: url(#clippath-5);
      }

      .cls-20 {
        fill: #ebf2ff;
      }

      .cls-22 {
        fill: #ffecc8;
      }

      .cls-23 {
        fill: #d8d8d8;
      }

      .cls-50 {
        clip-path: url(#clippath-10);
      }

      .cls-51 {
        fill: #ffeac2;
      }

      .cls-24 {
        fill: #d0defe;
      }

      .cls-25 {
        fill: #bdd2ff;
      }

      .cls-52 {
        fill: #9fc8b1;
      }

      .cls-26 {
        fill: #ecf2ff;
      }

      .cls-27 {
        fill: #ffd078;
      }
    </style>
    <clipPath id="clippath">
      <polygon class="cls-41" points="259.33 51.49 254.55 45.85 249.64 40.58 244.6 35.67 239.41 31.11 234.09 26.88 228.62 22.97 223 19.39 217.21 16.11 211.27 13.13 205.15 10.47 198.84 8.09 192.35 6.03 185.65 4.26 178.73 2.8 171.59 1.65 164.21 .82 156.57 .31 148.68 .14 140.26 .32 132.27 .83 124.67 1.64 117.46 2.76 110.6 4.15 103.65 5.92 97.02 7.97 90.7 10.28 84.68 12.85 78.95 15.68 73.31 18.84 67.91 22.24 62.74 25.89 57.8 29.78 53.08 33.92 48.58 38.29 44.25 42.89 40.1 47.72 36.13 52.79 32.34 58.11 28.8 63.53 25.39 69.17 22.14 75.03 19.03 81.12 16.07 87.45 13.63 93.16 11.37 99 9.3 104.96 7.41 111.06 5.74 117.21 4.28 123.39 3.02 129.6 1.98 135.85 1.14 142.14 .53 148.36 .16 154.51 0 160.61 .09 166.74 .41 172.7 .97 178.5 1.76 184.14 2.83 189.79 4.15 195.18 5.71 200.32 7.51 205.24 9.19 209.14 11.02 212.82 13.02 216.3 15.18 219.6 17.5 222.71 20.03 225.68 22.74 228.41 25.64 230.93 28.72 233.24 31.99 235.33 37.92 238.61 44.05 241.66 50.37 244.45 56.9 247 63.49 249.25 70.37 251.25 77.54 253.02 85.01 254.54 92.44 255.75 100.26 256.72 108.46 257.44 117.07 257.9 125.54 258.08 134.47 258 143.88 257.65 153.81 257.02 163.51 256.16 173.76 255.03 184.58 253.6 195.98 251.86 205.4 250.5 213.99 249.56 221.81 248.99 229.67 248.71 236.88 248.71 243.49 248.96 250.1 249.45 256.26 250.1 261.96 250.89 270.39 252.34 278.15 253.91 293.01 257.15 300.23 258.58 307.45 259.73 312.29 260.3 317.27 260.65 322.41 260.79 327.56 260.66 333.02 260.22 338.84 259.44 346.61 258.11 354.27 256.62 361.82 254.98 369.32 253.11 376.57 251 383.59 248.66 388.79 246.68 393.8 244.53 398.61 242.2 403.24 239.69 407.74 236.94 412.01 233.95 416.04 230.74 419.85 227.3 422.72 224.37 425.42 221.25 427.95 217.94 430.32 214.42 432.53 210.69 434.47 206.9 436.23 202.87 437.8 198.56 439.18 193.97 440.36 189.08 441.26 183.81 441.81 178.69 442.01 173.71 441.86 168.86 441.41 163.99 440.68 159.25 439.7 154.64 438.44 150.14 436.94 145.7 435.24 141.39 433.36 137.21 431.29 133.16 428.26 127.9 425.03 122.9 421.61 118.16 417.98 113.58 414.32 109.33 410.63 105.38 406.78 101.57 403.08 98.14 399.53 95.06 394.15 90.79 389.52 87.45 387.49 86.23 385.35 85.23 383.1 84.44 380.73 83.86 377.51 83.4 374.09 83.21 370.46 83.31 366.83 83.64 363.03 84.15 359.07 84.86 353.12 86.13 346.93 87.6 334.43 90.62 328.12 91.95 321.91 92.99 317.76 93.49 313.71 93.76 309.76 93.8 305.82 93.57 302.02 93 298.34 92.13 293.93 90.65 289.81 88.92 285.95 86.92 282.33 84.69 278.95 82.19 275.79 79.43 272.83 76.39 270.07 73.07 267.52 69.44 265.16 65.49 263.01 61.21 261.06 56.55 259.33 51.49"/>
    </clipPath>
    <clipPath id="clippath-1">
      <polygon class="cls-41" points="259.33 354.65 254.55 360.29 249.64 365.56 244.6 370.47 239.41 375.03 234.09 379.26 228.62 383.16 223 386.75 217.21 390.03 211.27 393 205.15 395.67 198.84 398.04 192.35 400.11 185.65 401.88 178.73 403.34 171.59 404.49 164.21 405.32 156.57 405.83 148.68 406 140.26 405.82 132.27 405.31 124.67 404.5 117.46 403.38 110.6 401.99 103.65 400.21 97.02 398.16 90.7 395.86 84.68 393.29 78.95 390.46 73.31 387.3 67.91 383.9 62.74 380.25 57.8 376.36 53.08 372.22 48.58 367.85 44.25 363.25 40.1 358.42 36.13 353.35 32.34 348.03 28.8 342.61 25.39 336.97 22.14 331.11 19.03 325.02 16.07 318.69 13.63 312.97 11.37 307.14 9.3 301.18 7.41 295.08 5.74 288.93 4.28 282.75 3.02 276.54 1.98 270.29 1.14 264 .53 257.78 .16 251.62 0 245.53 .09 239.4 .41 233.44 .97 227.64 1.76 222 2.83 216.35 4.15 210.96 5.71 205.81 7.51 200.89 9.19 197 11.02 193.32 13.02 189.84 15.18 186.54 17.5 183.43 20.03 180.46 22.74 177.72 25.64 175.2 28.72 172.9 31.99 170.81 37.92 167.52 44.05 164.48 50.37 161.68 56.9 159.14 63.49 156.89 70.37 154.89 77.54 153.12 85.01 151.6 92.44 150.39 100.26 149.42 108.46 148.7 117.07 148.24 125.54 148.06 134.47 148.14 143.88 148.49 153.81 149.12 163.51 149.97 173.76 151.11 184.58 152.54 195.98 154.28 205.4 155.63 213.99 156.58 221.81 157.14 229.67 157.43 236.88 157.43 243.49 157.18 250.1 156.69 256.26 156.04 261.96 155.24 270.39 153.8 278.15 152.22 293.01 148.99 300.23 147.56 307.45 146.4 312.29 145.84 317.27 145.48 322.41 145.35 327.56 145.48 333.02 145.92 338.84 146.7 346.61 148.03 354.27 149.51 361.82 151.16 369.32 153.03 376.57 155.14 383.59 157.48 388.79 159.46 393.8 161.61 398.61 163.94 403.24 166.44 407.74 169.2 412.01 172.18 416.04 175.39 419.85 178.84 422.72 181.77 425.42 184.89 427.95 188.2 430.32 191.72 432.53 195.45 434.47 199.23 436.23 203.27 437.8 207.58 439.18 212.17 440.36 217.06 441.26 222.33 441.81 227.44 442.01 232.43 441.86 237.28 441.41 242.15 440.68 246.89 439.7 251.5 438.44 256 436.94 260.44 435.24 264.75 433.36 268.93 431.29 272.98 428.26 278.24 425.03 283.24 421.61 287.97 417.98 292.55 414.32 296.81 410.63 300.76 406.78 304.57 403.08 308 399.53 311.07 394.15 315.35 389.52 318.69 387.49 319.91 385.35 320.91 383.1 321.7 380.73 322.27 377.51 322.74 374.09 322.93 370.46 322.83 366.83 322.5 363.03 321.99 359.07 321.28 353.12 320.01 346.93 318.54 334.43 315.52 328.12 314.19 321.91 313.15 317.76 312.65 313.71 312.38 309.76 312.34 305.82 312.57 302.02 313.13 298.34 314.01 293.93 315.49 289.81 317.22 285.95 319.21 282.33 321.45 278.95 323.95 275.79 326.71 272.83 329.75 270.07 333.07 267.52 336.69 265.16 340.64 263.01 344.93 261.06 349.59 259.33 354.65"/>
    </clipPath>
    <clipPath id="clippath-2">
      <polygon class="cls-41" points="121.18 102.32 333.79 102.32 333.79 205.8 352.31 205.8 358.05 215.51 362.99 223.35 367.21 229.58 370.81 234.42 373.85 238.09 376.4 240.79 378.53 242.68 380.31 243.94 189.46 242.12 187.32 241.93 185.29 241.46 183.34 240.69 181.53 239.64 179.89 238.35 178.42 236.79 172.12 228.82 167.73 222.87 164.82 218.56 161.7 213.25 160.33 211.01 159.02 209.23 158.05 208.21 156.94 207.37 155.68 206.69 154.33 206.23 152.64 205.92 150.54 205.8 149.18 205.99 147.9 206.49 146.68 207.34 145.59 208.41 144.54 209.74 143.52 211.36 142.2 213.98 140.97 216.96 139.88 220.06 138.9 223.21 137.21 229.23 135.78 234.09 135.09 235.6 134.23 236.8 133.18 237.76 131.97 238.52 130.69 239.05 129.32 239.37 127.91 239.49 126.55 239.41 125.24 239.15 123.99 238.69 122.92 238.08 122.02 237.31 121.32 236.39 120.88 235.33 120.71 234.09 121.18 102.32"/>
    </clipPath>
    <clipPath id="clippath-3">
      <polygon class="cls-41" points="121.18 102.32 333.79 102.32 333.79 205.8 352.31 205.8 358.05 215.51 362.99 223.35 367.21 229.58 370.81 234.42 373.85 238.09 376.4 240.79 378.53 242.68 380.31 243.94 189.46 242.12 187.32 241.93 185.29 241.46 183.34 240.69 181.53 239.64 179.89 238.35 178.42 236.79 172.12 228.82 167.73 222.87 164.82 218.56 161.7 213.25 160.33 211.01 159.02 209.23 158.05 208.21 156.94 207.37 155.68 206.69 154.33 206.23 152.64 205.92 150.54 205.8 149.18 205.99 147.9 206.49 146.68 207.34 145.59 208.41 144.54 209.74 143.52 211.36 142.2 213.98 140.97 216.96 139.88 220.06 138.9 223.21 137.21 229.23 135.78 234.09 135.09 235.6 134.23 236.8 133.18 237.76 131.97 238.52 130.69 239.05 129.32 239.37 127.91 239.49 126.55 239.41 125.24 239.15 123.99 238.69 122.92 238.08 122.02 237.31 121.32 236.39 120.88 235.33 120.71 234.09 121.18 102.32"/>
    </clipPath>
    <clipPath id="clippath-4">
      <polygon class="cls-41" points="197.21 98.61 212.17 83.69 227.62 98.61 197.21 98.61"/>
    </clipPath>
    <clipPath id="clippath-5">
      <polygon class="cls-41" points="130.23 53.94 146.4 37.73 161.28 53.94 130.23 53.94"/>
    </clipPath>
    <clipPath id="clippath-6">
      <polygon class="cls-41" points="67.51 204.57 100.81 204.57 101.49 204.7 102.03 205.07 102.4 205.61 102.53 206.29 102.51 206.56 97.33 238.14 97.12 238.72 96.74 239.17 96.23 239.48 95.63 239.58 72.69 239.58 72.09 239.48 71.57 239.17 71.19 238.72 70.99 238.14 65.81 206.56 65.83 205.88 66.11 205.28 66.58 204.83 67.23 204.59 67.51 204.57"/>
    </clipPath>
    <clipPath id="clippath-7">
      <polygon class="cls-41" points="80.47 191.58 81.4 179.08 82.32 170.8 83.17 165.65 84.41 160.6 85.82 156.08 87.41 151.82 88.93 148.26 91.67 142.62 93.95 138.6 96.01 135.57 98.17 132.93 100.05 131.02 101.95 129.42 103.51 128.32 106.15 126.79 107.32 126.27 108.81 125.8 110.41 125.48 112.15 125.3 113.9 125.32 115.59 125.55 117.19 126.04 118.6 126.79 119.8 127.77 120.8 128.87 121.6 130.08 122.21 131.43 122.71 133.34 122.95 135.7 122.86 138.58 122.55 140.47 122.02 142.13 121.26 143.61 120.3 144.97 119.2 146.2 117.97 147.28 115.94 148.68 113.82 149.81 112.06 150.77 109.49 152.37 106.76 154.25 103.62 156.59 100.49 159.14 97.32 161.93 94.32 164.87 91.67 167.83 89.72 170.42 87.79 173.47 85.9 177.05 84.04 181.22 82.22 186.04 80.47 191.58"/>
    </clipPath>
    <clipPath id="clippath-8">
      <polygon class="cls-41" points="80.47 191.58 81.4 179.08 82.32 170.8 83.17 165.65 84.41 160.6 85.82 156.08 87.41 151.82 88.93 148.26 91.67 142.62 93.95 138.6 96.01 135.57 98.17 132.93 100.05 131.02 101.95 129.42 103.51 128.32 106.15 126.79 107.32 126.27 108.81 125.8 110.41 125.48 112.15 125.3 113.9 125.32 115.59 125.55 117.19 126.04 118.6 126.79 119.8 127.77 120.8 128.87 121.6 130.08 122.21 131.43 122.71 133.34 122.95 135.7 122.86 138.58 122.55 140.47 122.02 142.13 121.26 143.61 120.3 144.97 119.2 146.2 117.97 147.28 115.94 148.68 113.82 149.81 112.06 150.77 109.49 152.37 106.76 154.25 103.62 156.59 100.49 159.14 97.32 161.93 94.32 164.87 91.67 167.83 89.72 170.42 87.79 173.47 85.9 177.05 84.04 181.22 82.22 186.04 80.47 191.58"/>
    </clipPath>
    <clipPath id="clippath-9">
      <polygon class="cls-41" points="80.47 191.58 81.4 179.08 82.32 170.8 83.17 165.65 84.41 160.6 85.82 156.08 87.41 151.82 88.93 148.26 91.67 142.62 93.95 138.6 96.01 135.57 98.17 132.93 100.05 131.02 101.95 129.42 103.51 128.32 106.15 126.79 107.32 126.27 108.81 125.8 110.41 125.48 112.15 125.3 113.9 125.32 115.59 125.55 117.19 126.04 118.6 126.79 119.8 127.77 120.8 128.87 121.6 130.08 122.21 131.43 122.71 133.34 122.95 135.7 122.86 138.58 122.55 140.47 122.02 142.13 121.26 143.61 120.3 144.97 119.2 146.2 117.97 147.28 115.94 148.68 113.82 149.81 112.06 150.77 109.49 152.37 106.76 154.25 103.62 156.59 100.49 159.14 97.32 161.93 94.32 164.87 91.67 167.83 89.72 170.42 87.79 173.47 85.9 177.05 84.04 181.22 82.22 186.04 80.47 191.58"/>
    </clipPath>
    <clipPath id="clippath-10">
      <polygon class="cls-41" points="92.32 141.47 97.24 132.56 101.36 125.6 104.79 120.3 107.61 116.37 109.91 113.57 111.78 111.66 114.17 109.73 116.59 108.18 119.03 106.98 121.59 106.03 124.01 105.4 126.29 105.04 128.6 104.93 130.57 105.06 132.24 105.4 133.4 105.85 134.44 106.47 135.37 107.26 136.17 108.2 136.82 109.23 137.34 110.35 137.7 111.53 137.89 112.72 137.91 113.91 137.74 115.08 137.39 116.17 136.83 117.19 135.8 118.5 134.78 119.45 133.62 120.17 132.23 120.75 130.66 121.19 128.6 121.62 123.32 122.55 119.33 123.38 116.3 124.2 113.55 125.11 111.42 125.95 107.8 127.55 106.16 128.4 103.61 129.94 100.74 131.9 99.35 132.98 98.16 134.03 96.85 135.44 94.96 137.82 92.32 141.47"/>
    </clipPath>
    <clipPath id="clippath-11">
      <polygon class="cls-41" points="92.32 141.47 97.24 132.56 101.36 125.6 104.79 120.3 107.61 116.37 109.91 113.57 111.78 111.66 114.17 109.73 116.59 108.18 119.03 106.98 121.59 106.03 124.01 105.4 126.29 105.04 128.6 104.93 130.57 105.06 132.24 105.4 133.4 105.85 134.44 106.47 135.37 107.26 136.17 108.2 136.82 109.23 137.34 110.35 137.7 111.53 137.89 112.72 137.91 113.91 137.74 115.08 137.39 116.17 136.83 117.19 135.8 118.5 134.78 119.45 133.62 120.17 132.23 120.75 130.66 121.19 128.6 121.62 123.32 122.55 119.33 123.38 116.3 124.2 113.55 125.11 111.42 125.95 107.8 127.55 106.16 128.4 103.61 129.94 100.74 131.9 99.35 132.98 98.16 134.03 96.85 135.44 94.96 137.82 92.32 141.47"/>
    </clipPath>
    <clipPath id="clippath-12">
      <polygon class="cls-41" points="78.98 162.13 77.21 154.64 75.5 148.41 73.86 143.3 72.27 139.16 70.77 135.87 69.34 133.3 67.27 130.21 65.15 127.48 62.97 125.08 60.75 122.99 58.32 121.04 55.91 119.41 53.52 118.07 51.15 117.02 47.96 115.64 45.16 114.15 43.43 113 41.96 111.8 40.74 110.54 39.73 109.14 39.03 107.65 38.64 106.05 38.55 104.36 38.73 102.74 39.2 101.16 39.93 99.68 40.93 98.35 42.24 97.14 43.74 96.2 45.55 95.48 47.74 95 49.98 94.81 52.23 94.85 54.48 95.13 56.67 95.68 58.89 96.56 61.12 97.8 63.19 99.31 65.3 101.28 67.46 103.78 68.93 105.97 70.5 108.92 71.95 112.15 73.38 115.89 74.7 119.76 75.93 123.83 77.03 127.92 77.97 131.89 78.75 135.79 79.32 139.24 79.69 142.52 79.8 145.03 79.71 151.34 79.43 157.03 78.98 162.13"/>
    </clipPath>
    <clipPath id="clippath-13">
      <polygon class="cls-41" points="78.98 162.13 77.21 154.64 75.5 148.41 73.86 143.3 72.27 139.16 70.77 135.87 69.34 133.3 67.27 130.21 65.15 127.48 62.97 125.08 60.75 122.99 58.32 121.04 55.91 119.41 53.52 118.07 51.15 117.02 47.96 115.64 45.16 114.15 43.43 113 41.96 111.8 40.74 110.54 39.73 109.14 39.03 107.65 38.64 106.05 38.55 104.36 38.73 102.74 39.2 101.16 39.93 99.68 40.93 98.35 42.24 97.14 43.74 96.2 45.55 95.48 47.74 95 49.98 94.81 52.23 94.85 54.48 95.13 56.67 95.68 58.89 96.56 61.12 97.8 63.19 99.31 65.3 101.28 67.46 103.78 68.93 105.97 70.5 108.92 71.95 112.15 73.38 115.89 74.7 119.76 75.93 123.83 77.03 127.92 77.97 131.89 78.75 135.79 79.32 139.24 79.69 142.52 79.8 145.03 79.71 151.34 79.43 157.03 78.98 162.13"/>
    </clipPath>
    <clipPath id="clippath-14">
      <polygon class="cls-41" points="78.98 162.13 77.21 154.64 75.5 148.41 73.86 143.3 72.27 139.16 70.77 135.87 69.34 133.3 67.27 130.21 65.15 127.48 62.97 125.08 60.75 122.99 58.32 121.04 55.91 119.41 53.52 118.07 51.15 117.02 47.96 115.64 45.16 114.15 43.43 113 41.96 111.8 40.74 110.54 39.73 109.14 39.03 107.65 38.64 106.05 38.55 104.36 38.73 102.74 39.2 101.16 39.93 99.68 40.93 98.35 42.24 97.14 43.74 96.2 45.55 95.48 47.74 95 49.98 94.81 52.23 94.85 54.48 95.13 56.67 95.68 58.89 96.56 61.12 97.8 63.19 99.31 65.3 101.28 67.46 103.78 68.93 105.97 70.5 108.92 71.95 112.15 73.38 115.89 74.7 119.76 75.93 123.83 77.03 127.92 77.97 131.89 78.75 135.79 79.32 139.24 79.69 142.52 79.8 145.03 79.71 151.34 79.43 157.03 78.98 162.13"/>
    </clipPath>
    <clipPath id="clippath-15">
      <polygon class="cls-41" points="80.9 139.59 80.88 127.05 80.57 116.93 80.03 108.92 79.32 102.68 78.49 97.94 77.59 94.43 76.24 90.51 74.82 87.22 73.37 84.5 72.08 82.53 70.77 80.93 69.46 79.65 68.15 78.65 66.68 77.86 65.18 77.38 63.62 77.19 62 77.29 60.37 77.69 59.05 78.23 58.01 78.89 57.18 79.68 56.5 80.63 56.03 81.64 55.77 82.71 55.69 83.86 55.89 85.39 56.42 86.91 57.31 88.45 59.77 91.87 63.04 96.55 66.6 101.9 69.91 107.31 71.33 109.92 72.41 112.17 73.83 115.74 75.67 121.14 77.99 128.89 80.9 139.59"/>
    </clipPath>
    <clipPath id="clippath-16">
      <polygon class="cls-41" points="79.8 140.05 80.22 127.51 80.27 117.39 80.01 109.36 79.52 103.11 78.86 98.34 78.07 94.79 76.86 90.83 75.56 87.5 74.21 84.73 72.99 82.71 71.74 81.06 70.48 79.74 69.19 78.7 67.75 77.86 66.26 77.33 64.73 77.09 63.1 77.13 61.46 77.47 60.12 77.96 59.05 78.59 58.2 79.35 57.49 80.28 56.98 81.26 56.67 82.32 56.57 83.47 56.71 85.01 57.19 86.55 58.03 88.11 60.35 91.61 63.46 96.41 66.83 101.88 69.95 107.4 71.28 110.05 72.29 112.34 73.58 115.97 75.22 121.43 77.27 129.26 79.8 140.05"/>
    </clipPath>
    <clipPath id="clippath-17">
      <polygon class="cls-41" points="78.67 182.85 75.3 178.36 71.94 174.39 68.57 170.92 65.2 167.9 61.82 165.31 58.43 163.11 55.02 161.28 51.57 159.79 48.7 158.85 46.13 158.21 43.83 157.84 41.77 157.71 38.95 157.85 36.59 158.28 34.61 158.96 32.76 159.95 31.32 161.02 30.23 162.2 29.37 163.54 28.89 164.82 28.74 166.05 28.89 167.66 29.31 169.05 29.98 170.26 30.88 171.3 32 172.18 33.38 172.89 34.87 173.38 36.58 173.69 38.54 173.8 43.55 173.69 46.39 173.69 49.5 173.83 52.66 174.2 55.97 174.89 58.14 175.55 60.34 176.44 62.55 177.56 65.22 179.22 67.99 181.27 70.87 183.74 73.87 186.68 77.01 190.14 80.29 194.17 78.67 182.85"/>
    </clipPath>
    <clipPath id="clippath-18">
      <polygon class="cls-41" points="78.67 182.85 75.3 178.36 71.94 174.39 68.57 170.92 65.2 167.9 61.82 165.31 58.43 163.11 55.02 161.28 51.57 159.79 48.7 158.85 46.13 158.21 43.83 157.84 41.77 157.71 38.95 157.85 36.59 158.28 34.61 158.96 32.76 159.95 31.32 161.02 30.23 162.2 29.37 163.54 28.89 164.82 28.74 166.05 28.89 167.66 29.31 169.05 29.98 170.26 30.88 171.3 32 172.18 33.38 172.89 34.87 173.38 36.58 173.69 38.54 173.8 43.55 173.69 46.39 173.69 49.5 173.83 52.66 174.2 55.97 174.89 58.14 175.55 60.34 176.44 62.55 177.56 65.22 179.22 67.99 181.27 70.87 183.74 73.87 186.68 77.01 190.14 80.29 194.17 78.67 182.85"/>
    </clipPath>
    <clipPath id="clippath-19">
      <polygon class="cls-41" points="375.92 116.1 375.78 118.6 375.42 120.99 374.83 123.28 374.02 125.48 372.99 127.61 371.79 129.58 370.41 131.43 368.85 133.15 367.13 134.71 365.28 136.09 363.3 137.29 361.17 138.31 358.97 139.12 356.68 139.71 354.28 140.08 351.77 140.21 349.27 140.08 346.88 139.71 344.58 139.12 342.38 138.31 340.25 137.29 338.27 136.09 336.43 134.71 334.7 133.15 333.14 131.43 331.76 129.58 330.56 127.61 329.53 125.48 328.72 123.28 328.13 120.99 327.77 118.6 327.63 116.1 327.77 113.6 328.13 111.21 328.72 108.92 329.53 106.71 330.56 104.59 331.76 102.61 333.14 100.77 334.7 99.05 336.43 97.49 338.27 96.11 340.25 94.91 342.38 93.88 344.58 93.07 346.88 92.49 349.27 92.12 351.77 91.99 354.28 92.12 356.68 92.49 358.97 93.07 361.17 93.88 363.3 94.91 365.28 96.11 367.13 97.49 368.85 99.05 370.41 100.77 371.79 102.61 372.99 104.59 374.02 106.71 374.83 108.92 375.42 111.21 375.78 113.6 375.92 116.1"/>
    </clipPath>
  </defs>
  <g>
    <path class="cls-7" d="M259.33,51.49l-4.78-5.64-4.91-5.27-5.05-4.91-5.18-4.56-5.32-4.23-5.47-3.9-5.62-3.59-5.78-3.28-5.94-2.97-6.12-2.67-6.31-2.37-6.5-2.07-6.7-1.77-6.91-1.46-7.14-1.15-7.38-.83-7.63-.51-7.9-.17-8.41,.18-8,.51-7.59,.82-7.21,1.11-6.86,1.39-6.95,1.77-6.63,2.05-6.32,2.31-6.02,2.57-5.73,2.83-5.64,3.16-5.4,3.4-5.16,3.65-4.94,3.89-4.72,4.14-4.51,4.37-4.33,4.6-4.14,4.83-3.97,5.07-3.79,5.32-3.54,5.42-3.4,5.64-3.25,5.86-3.11,6.09-2.96,6.33-2.44,5.71-2.26,5.83-2.07,5.96-1.89,6.1-1.67,6.15-1.47,6.18-1.25,6.21-1.05,6.25-.84,6.29-.6,6.22-.38,6.15L0,160.61l.08,6.13,.32,5.96,.56,5.8,.79,5.64,1.07,5.65,1.32,5.39,1.56,5.14,1.8,4.92,1.68,3.89,1.83,3.68,2,3.48,2.16,3.3,2.32,3.11,2.53,2.97,2.71,2.74,2.89,2.52,3.08,2.3,3.27,2.1,5.93,3.28,6.13,3.04,6.32,2.8,6.53,2.55,6.59,2.24,6.87,2,7.17,1.77,7.47,1.52,7.43,1.21,7.81,.97,8.2,.72,8.61,.46,8.47,.18,8.93-.07,9.42-.35,9.93-.63,9.7-.86,10.25-1.14,10.82-1.43,11.4-1.74,9.42-1.35,8.59-.95,7.82-.56,7.86-.28h7.21s6.61,.25,6.61,.25l6.62,.49,6.15,.65,5.71,.8,8.43,1.45,7.77,1.57,14.85,3.24,7.22,1.43,7.23,1.15,4.83,.56,4.98,.36,5.14,.13,5.14-.13,5.47-.44,5.82-.78,7.77-1.33,7.66-1.49,7.55-1.65,7.5-1.87,7.25-2.11,7.02-2.34,5.2-1.98,5.01-2.15,4.81-2.33,4.63-2.5,4.51-2.76,4.26-2.99,4.04-3.21,3.81-3.44,2.87-2.93,2.7-3.12,2.53-3.31,2.37-3.52,2.21-3.73,1.94-3.78,1.76-4.04,1.57-4.31,1.38-4.59,1.18-4.89,.91-5.27,.55-5.11,.2-4.98-.14-4.85-.45-4.87-.72-4.74-.99-4.61-1.26-4.5-1.5-4.44-1.7-4.31-1.88-4.18-2.08-4.05-3.03-5.26-3.22-5-3.42-4.74-3.63-4.58-3.66-4.25-3.69-3.95-3.85-3.81-3.7-3.43-3.55-3.07-5.37-4.28-4.63-3.34-2.03-1.22-2.14-1-2.25-.79-2.37-.57-3.22-.46-3.42-.19-3.63,.1-3.63,.33-3.79,.51-3.97,.71-5.95,1.27-6.18,1.48-12.51,3.02-6.31,1.33-6.21,1.04-4.15,.49-4.05,.27-3.95,.04-3.94-.23-3.8-.56-3.68-.88-4.4-1.48-4.12-1.73-3.86-1.99-3.62-2.24-3.38-2.5-3.17-2.76-2.96-3.04-2.75-3.32-2.55-3.62-2.36-3.95-2.16-4.29-1.95-4.66-1.73-5.06Z"/>
    <g class="cls-40">
      <path id="_矩形" class="cls-24" d="M0,207.95H454.66v64.3H0v-64.3Z"/>
    </g>
    <g class="cls-34">
      <path id="_矩形-2" class="cls-13" d="M0,207.95H454.66v-9.76H0v9.76Z"/>
    </g>
  </g>
  <path id="_矩形-3" class="cls-23" d="M363.56,219.14h22.42v5.74h-22.42v-5.74Z"/>
  <path id="_矩形-4" class="cls-23" d="M363.56,231.2h22.42v5.74h-22.42v-5.74Z"/>
  <path id="_矩形-5" class="cls-23" d="M361.26,225.46h22.42v5.74h-22.42v-5.74Z"/>
  <path id="_矩形-6" class="cls-8" d="M314.41,81.08h82.77V242.39h-82.77V81.08Z"/>
  <path id="_矩形-7" class="cls-11" d="M317.29,87.11h75.3V237.51h-75.3V87.11Z"/>
  <path id="_矩形-8" class="cls-16" d="M375.34,87.11h17.24V237.51h-17.24V87.11Z"/>
  <path id="_矩形-9" class="cls-8" d="M346.6,159.15h45.98v4.59h-45.98v-4.59Z"/>
  <path id="_矩形-10" class="cls-8" d="M346.6,197.62h45.98v4.59h-45.98v-4.59Z"/>
  <path id="_矩形-11" class="cls-22" d="M367.29,168.91h22.99v28.7h-22.99v-28.7Z"/>
  <path id="_矩形-12" class="cls-6" d="M383.96,168.91h6.32v28.7h-6.32v-28.7Z"/>
  <path id="_矩形-13" class="cls-18" d="M358.67,168.91h22.99v28.7h-22.99v-28.7Z"/>
  <path id="_矩形-14" class="cls-25" d="M375.34,168.91h6.32v28.7h-6.32v-28.7Z"/>
  <path id="_矩形-15" class="cls-22" d="M350.62,173.5h22.99v24.11h-22.99v-24.11Z"/>
  <path id="_矩形-16" class="cls-6" d="M367.29,173.5h6.32v24.11h-6.32v-24.11Z"/>
  <path id="_矩形-17" class="cls-22" d="M367.29,208.52h22.99v28.7h-22.99v-28.7Z"/>
  <path id="_矩形-18" class="cls-6" d="M383.96,208.52h6.32v28.7h-6.32v-28.7Z"/>
  <path id="_矩形-19" class="cls-18" d="M358.67,208.52h22.99v28.7h-22.99v-28.7Z"/>
  <path id="_矩形-20" class="cls-25" d="M375.34,208.52h6.32v28.7h-6.32v-28.7Z"/>
  <path id="_矩形-21" class="cls-22" d="M350.62,213.11h22.99v24.11h-22.99v-24.11Z"/>
  <path id="_矩形-22" class="cls-6" d="M367.29,213.11h6.32v24.11h-6.32v-24.11Z"/>
  <path id="_矩形-23" class="cls-22" d="M367.29,130.45h22.99v28.7h-22.99v-28.7Z"/>
  <path id="_矩形-24" class="cls-6" d="M383.96,130.45h6.32v28.7h-6.32v-28.7Z"/>
  <path id="_矩形-25" class="cls-18" d="M358.67,130.45h22.99v28.7h-22.99v-28.7Z"/>
  <path id="_矩形-26" class="cls-25" d="M375.34,130.45h6.32v28.7h-6.32v-28.7Z"/>
  <path id="_矩形-27" class="cls-22" d="M350.62,135.04h22.99v24.11h-22.99v-24.11Z"/>
  <path id="_矩形-28" class="cls-6" d="M367.29,135.04h6.32v24.11h-6.32v-24.11Z"/>
  <path id="_矩形-29" class="cls-15" d="M118.41,74.77h218.42l1.89,.18,1.73,.47,1.6,.76,1.45,1.03,1.24,1.23,1.02,1.45,.77,1.6,.47,1.73,.17,1.89V239.52H108.06V85.1l.18-1.89,.47-1.73,.76-1.6,1.03-1.45,1.23-1.23,1.45-1.03,1.6-.76,1.73-.47,1.89-.18Z"/>
  <path id="_矩形-30" class="cls-22" d="M118.41,74.77h218.42l1.89,.18,1.73,.47,1.6,.76,1.45,1.03,1.24,1.23,1.02,1.45,.77,1.6,.47,1.73,.17,1.89v8.61H108.06v-8.61l.18-1.89,.47-1.73,.76-1.6,1.03-1.45,1.23-1.23,1.45-1.03,1.6-.76,1.73-.47,1.89-.18Z"/>
  <path id="_矩形-31" class="cls-17" d="M118.41,74.77h218.42l1.89,.18,1.73,.47,1.6,.76,1.45,1.03,1.24,1.23,1.02,1.45,.77,1.6,.47,1.73,.17,1.89v6.89H108.06v-6.89l.18-1.89,.47-1.73,.76-1.6,1.03-1.45,1.23-1.23,1.45-1.03,1.6-.76,1.73-.47,1.89-.18Z"/>
  <path id="_椭圆形" class="cls-21" d="M122.94,83.81l-.18,.9-.49,.72-.72,.49-.9,.18-.9-.18-.72-.49-.49-.72-.18-.9,.18-.9,.49-.72,.72-.49,.9-.18,.9,.18,.72,.49,.49,.72,.18,.9Z"/>
  <path id="_椭圆形-2" class="cls-26" d="M130.48,83.38l-.18,.9-.49,.72-.72,.49-.9,.18-.9-.18-.72-.49-.49-.72-.18-.9,.18-.9,.49-.72,.72-.49,.9-.18,.9,.18,.72,.49,.49,.72,.18,.9Z"/>
  <path class="cls-5" d="M121.18,102.32h212.62v103.48h18.51l5.74,9.71,4.94,7.84,4.22,6.23,3.59,4.84,3.04,3.67,2.55,2.7,2.13,1.89,1.78,1.26-190.85-1.83-2.14-.18-2.03-.47-1.95-.77-1.82-1.04-1.63-1.29-1.47-1.56-6.3-7.97-4.4-5.95-2.9-4.31-3.12-5.31-1.37-2.24-1.31-1.78-.98-1.02-1.11-.84-1.25-.68-1.35-.46-1.69-.31-2.1-.11-1.36,.18-1.28,.51-1.22,.85-1.09,1.07-1.05,1.33-1.02,1.62-1.32,2.61-1.23,2.98-1.09,3.1-.98,3.16-1.7,6.02-1.43,4.86-.68,1.5-.87,1.21-1.05,.96-1.21,.76-1.28,.53-1.37,.32-1.41,.11-1.36-.07-1.31-.26-1.25-.46-1.07-.61-.9-.77-.7-.92-.44-1.06-.17-1.23,.47-131.77Z"/>
  <g class="cls-29">
    <path id="_矩形-32" class="cls-26" d="M149.92,205.88h236.82v49.94H149.92v-49.94Z"/>
  </g>
  <g class="cls-43">
    <path id="_路径" class="cls-51" d="M328.47,107.4v98.69h-.57V107.98H129.01v122.85h7.74v.57h-8.32V107.4h200.03Z"/>
  </g>
  <path id="_404" class="cls-51" d="M191.49,191.3v-13.95h10v-5.77h-10v-41.76h-6.64l-31.04,40.82v6.72h30.95v13.95h6.73Zm-6.73-19.72h-25l24.74-32.55h.26v32.55Zm44.58,20.92l2.72-.17,2.49-.46,2.29-.76,2.11-1.04,1.96-1.33,1.82-1.64,1.69-1.98,1.56-2.35,1.4-2.69,1.19-3.04,.97-3.42,.73-3.86,.46-4.34,.16-4.87-.16-4.87-.46-4.34-.73-3.86-.97-3.42-1.19-3.04-1.4-2.69-1.56-2.37-1.7-1.99-1.82-1.65-1.96-1.33-2.11-1.03-2.29-.75-2.49-.46-2.72-.15-2.76,.15-2.51,.46-2.3,.75-2.12,1.04-1.95,1.34-1.8,1.64-1.66,1.99-1.53,2.37-1.4,2.69-1.2,3.04-.97,3.42-.72,3.86-.47,4.34-.16,4.87,.16,4.87,.47,4.34,.72,3.86,.97,3.42,1.2,3.04,1.4,2.69,1.52,2.35,1.67,1.97,1.8,1.64,1.95,1.33,2.12,1.04,2.3,.76,2.52,.47,2.76,.17Zm0-6.03l-2.01-.15-1.82-.41-1.65-.67-1.52-.92-1.39-1.19-1.28-1.49-1.18-1.83-1.06-2.22-.85-2.45-.71-2.86-.55-3.35-.35-3.89-.13-4.5,.13-4.57,.36-3.92,.55-3.34,.71-2.83,.84-2.39,1.06-2.23,1.17-1.84,1.29-1.49,1.39-1.19,1.52-.92,1.65-.65,1.81-.4,2.01-.14,2.01,.14,1.82,.4,1.65,.65,1.51,.92,1.4,1.19,1.28,1.49,1.18,1.84,1.06,2.23,.87,2.39,.72,2.84,.56,3.34,.37,3.92,.14,4.57-.14,4.49-.37,3.89-.56,3.35-.72,2.87-.87,2.45-1.06,2.22-1.17,1.83-1.28,1.49-1.4,1.19-1.51,.92-1.66,.67-1.81,.41-2.01,.15Zm65.61,4.82v-13.95h10v-5.77h-10v-41.76h-6.64l-31.04,40.82v6.72h30.95v13.95h6.73Zm-6.73-19.72h-25l24.74-32.55h.26v32.55Z"/>
  <path id="_404-2" class="cls-28" d="M189.77,189.58v-13.95h10v-5.77h-10v-41.76h-6.64l-31.04,40.82v6.72h30.95v13.95h6.73Zm-6.73-19.72h-25l24.74-32.55h.26v32.55Zm44.58,20.92l2.72-.17,2.49-.46,2.29-.76,2.11-1.04,1.96-1.33,1.82-1.64,1.69-1.98,1.56-2.35,1.4-2.69,1.19-3.04,.97-3.42,.73-3.86,.46-4.34,.16-4.87-.16-4.87-.46-4.34-.73-3.86-.97-3.42-1.19-3.04-1.4-2.69-1.56-2.37-1.7-1.99-1.82-1.65-1.96-1.33-2.11-1.03-2.29-.75-2.49-.46-2.72-.15-2.76,.15-2.51,.46-2.3,.75-2.12,1.04-1.95,1.34-1.8,1.64-1.66,1.99-1.53,2.37-1.4,2.69-1.2,3.04-.97,3.42-.72,3.86-.47,4.34-.16,4.87,.16,4.87,.47,4.34,.72,3.86,.97,3.42,1.2,3.04,1.4,2.69,1.52,2.35,1.67,1.97,1.8,1.64,1.95,1.33,2.12,1.04,2.3,.76,2.52,.47,2.76,.17Zm0-6.03l-2.01-.15-1.82-.41-1.65-.67-1.52-.92-1.39-1.19-1.28-1.49-1.18-1.83-1.06-2.22-.85-2.45-.71-2.86-.55-3.35-.35-3.89-.13-4.5,.13-4.57,.36-3.92,.55-3.34,.71-2.83,.84-2.39,1.06-2.23,1.17-1.84,1.29-1.49,1.39-1.19,1.52-.92,1.65-.65,1.81-.4,2.01-.14,2.01,.14,1.82,.4,1.65,.65,1.51,.92,1.4,1.19,1.28,1.49,1.18,1.84,1.06,2.23,.87,2.39,.72,2.84,.56,3.34,.37,3.92,.14,4.57-.14,4.49-.37,3.89-.56,3.35-.72,2.87-.87,2.45-1.06,2.22-1.17,1.83-1.28,1.49-1.4,1.19-1.51,.92-1.66,.67-1.81,.41-2.01,.15Zm65.61,4.82v-13.95h10v-5.77h-10v-41.76h-6.64l-31.04,40.82v6.72h30.95v13.95h6.73Zm-6.73-19.72h-25l24.74-32.55h.26v32.55Z"/>
  <path id="_路径-298" class="cls-35" d="M212.46,15.13V83.69h-.57V15.13h.57Z"/>
  <path class="cls-27" d="M197.21,98.61l14.97-14.91,15.44,14.91h-30.41Z"/>
  <g class="cls-36">
    <path id="_路径-299" class="cls-21" d="M195.48,98.61l14.97-14.91,15.44,14.91h-30.41Z"/>
  </g>
  <path id="_路径-300" class="cls-35" d="M146.11,0h.57s-.11,39.46-.11,39.46h-.57l.11-39.46Z"/>
  <path class="cls-12" d="M130.23,53.94l16.17-16.21,14.88,16.21h-31.06Z"/>
  <g class="cls-49">
    <path id="_路径-301" class="cls-17" d="M128.5,53.94l16.17-16.21,14.88,16.21h-31.06Z"/>
  </g>
  <path id="_矩形-33" class="cls-22" d="M266.7,41.47h63.23l1.24,.17,1.09,.46,.93,.72,.72,.93,.46,1.09,.17,1.23v41.35h0l11.86,12.92-79.66,.24-1.89-.17-1.73-.46-1.61-.76-1.45-1.03-1.24-1.22-1.03-1.45-.77-1.6-.48-1.73-.18-1.88V51.8l.18-1.89,.47-1.73,.76-1.6,1.03-1.45,1.23-1.23,1.45-1.03,1.6-.76,1.73-.47,1.89-.18Z"/>
  <path id="_矩形-34" class="cls-20" d="M264.41,39.75h63.23l1.24,.17,1.09,.46,.93,.72,.72,.93,.46,1.09,.17,1.23v41.35h0l11.86,12.92-79.66,.24-1.89-.17-1.73-.46-1.61-.76-1.45-1.03-1.24-1.22-1.03-1.45-.77-1.6-.48-1.73-.18-1.88V50.08l.18-1.89,.47-1.73,.76-1.6,1.03-1.45,1.23-1.23,1.45-1.03,1.6-.76,1.73-.47,1.89-.18Z"/>
  <path id="_矩形-35" class="cls-5" d="M275.84,54.54h4.02v36.74h-4.02V54.54Z"/>
  <path id="_矩形-36" class="cls-5" d="M285.67,54.54h4.02v36.74h-4.02V54.54Z"/>
  <path id="_矩形-37" class="cls-5" d="M295.44,54.54h4.02v36.74h-4.02V54.54Z"/>
  <path id="_矩形-38" class="cls-5" d="M304.64,54.54h4.02v36.74h-4.02V54.54Z"/>
  <path id="_矩形-39" class="cls-5" d="M313.84,54.54h4.02v36.74h-4.02V54.54Z"/>
  <path id="_路径-302" class="cls-38" d="M268.35,49.41v41.45h57.49v.57h-58.06V49.41h.57Z"/>
  <path id="_路径-304" class="cls-1" d="M321.39,87.53l.39-.43,4.47,4.03-4.45,4.69-.41-.4,4.05-4.27-4.04-3.63Z"/>
  <path id="_矩形-40" class="cls-17" d="M384.14,86.82h-63.23l-1.23,.17-1.09,.46-.93,.72-.72,.93-.46,1.09-.17,1.23v41.35h0l-11.86,12.92,79.66,.24,1.89-.17,1.73-.46,1.61-.76,1.45-1.03,1.24-1.22,1.03-1.45,.77-1.6,.48-1.73,.18-1.88v-38.46l-.18-1.89-.47-1.73-.76-1.6-1.03-1.45-1.23-1.23-1.45-1.03-1.6-.76-1.73-.47-1.89-.18Z"/>
  <path id="_矩形-41" class="cls-19" d="M381.27,86.25h-63.23l-1.23,.17-1.09,.46-.93,.72-.72,.93-.46,1.09-.17,1.23v41.35h0l-11.86,12.92,79.66,.24,1.89-.17,1.73-.46,1.61-.76,1.45-1.03,1.24-1.22,1.03-1.45,.77-1.6,.48-1.73,.18-1.88v-38.46l-.18-1.89-.47-1.73-.76-1.6-1.03-1.45-1.23-1.23-1.45-1.03-1.6-.76-1.73-.47-1.89-.18Z"/>
  <path id="_路径-303" class="cls-45" d="M317.16,60.3l1.48-.64,1.43-.26,.95,.02,1.01,.19,1.08,.37,.2,.09-.24,.53-1.52-.51-1.37-.11-1.34,.23-1.4,.61-.83,.51-.94,.69-2.37,2.07-2.04,1.89-1.81,1.63-1.51,1.28-1.56,1.22-.57,.42-1.78,1.1-1.77,.72-1.86,.4-1.95,.1-1.37-.09-1.44-.22-3.59-.92-1.4-.41-2.17-.59-1.63-.36-1.5-.21h-1.22s-1.17,.15-1.17,.15l-1.17,.34-1.39,.67-1.42,1.03-1.47,1.46-1.52,1.97-1.59,2.58-1.64,3.31-1.7,4.15-1.74,5.13-.12,.38-.55-.17,1.77-5.29,1.74-4.28,1.69-3.42,1.64-2.68,1.59-2.06,1.53-1.53,1.5-1.08,1.47-.71,1.29-.38,1.27-.17,1.33,.02,1.65,.24,1.79,.41,2.41,.67,1.13,.33,3.35,.84,1.36,.21,1.28,.08,1.86-.1,1.76-.38,1.69-.69,1.69-1.04,.28-.21,.28-.21,1.64-1.28,1.6-1.37,1.99-1.8,1.66-1.53,2.42-2.11,.97-.71,.86-.53Z"/>
  <path id="_路径-305" class="cls-38" d="M263.62,53.08l4.44-4.06,4.49,4.06-.39,.42-4.1-3.71-4.05,3.71-.39-.42Z"/>
  <path class="cls-15" d="M67.51,204.57h33.3l.68,.14,.55,.37,.37,.54,.13,.68-.02,.28-5.18,31.57-.21,.58-.38,.45-.51,.3-.6,.11h-22.94l-.6-.11-.51-.3-.38-.45-.21-.58-5.18-31.57,.02-.69,.28-.59,.48-.45,.64-.24,.28-.02Z"/>
  <g class="cls-32">
    <path id="_矩形-42" class="cls-21" d="M66.18,204.57h35.75l.56,.09,.47,.25,.4,.41,1.04,1.54,.22,.55v.56l-.21,.52-.41,.42-.39,.19-.43,.06h-36.51l-.52-.08-.45-.22-.37-.34-.26-.46-.46-1.19-.11-.67,.15-.63,.37-.53,.57-.37,.61-.11Z"/>
  </g>
  <path class="cls-10" d="M80.47,191.58l.93-12.49,.91-8.29,.86-5.15,1.24-5.05,1.41-4.52,1.59-4.27,1.52-3.56,2.74-5.64,2.28-4.02,2.06-3.03,2.16-2.64,1.88-1.91,1.89-1.6,1.57-1.1,2.64-1.53,1.17-.52,1.49-.47,1.6-.32,1.74-.18,1.75,.02,1.7,.23,1.6,.49,1.4,.76,1.21,.98,.99,1.09,.8,1.21,.61,1.35,.5,1.92,.24,2.35-.09,2.88-.31,1.89-.53,1.66-.76,1.48-.96,1.36-1.1,1.22-1.24,1.08-2.03,1.4-2.12,1.14-1.76,.95-2.58,1.61-2.72,1.88-3.14,2.34-3.14,2.54-3.16,2.79-3,2.94-2.66,2.96-1.95,2.59-1.93,3.05-1.9,3.58-1.86,4.17-1.81,4.82-1.75,5.53Z"/>
  <g class="cls-33">
    <path id="_路径-246" class="cls-9" d="M80.47,193.87l.93-12.49,.91-8.29,.86-5.15,1.24-5.05,1.41-4.52,1.59-4.27,1.52-3.56,2.74-5.64,2.28-4.02,2.06-3.03,2.16-2.64,1.88-1.91,1.89-1.6,1.57-1.1,2.64-1.53,1.17-.52,1.49-.47,1.6-.32,1.74-.18,1.75,.02,1.7,.23,1.6,.49,1.4,.76,1.21,.98,.99,1.09,.8,1.21,.61,1.35,.5,1.92,.24,2.35-.09,2.88-.31,1.89-.53,1.66-.76,1.48-.96,1.36-1.1,1.22-1.24,1.08-2.03,1.4-2.12,1.14-1.76,.95-2.58,1.61-2.72,1.88-3.14,2.34-3.14,2.54-3.16,2.79-3,2.94-2.66,2.96-1.95,2.59-1.93,3.05-1.9,3.58-1.86,4.17-1.81,4.82-1.75,5.53Z"/>
  </g>
  <g class="cls-44">
    <path id="_路径-251" class="cls-52" d="M115.57,137.94l.22,.03,.14,.17-.03,.22-.17,.13-3.14,1.02-3,1.29-2.87,1.58-2.75,1.87-2.64,2.19-2.54,2.51-2.45,2.86-2.35,3.25-2.25,3.66-2.14,4.12-2.02,4.6-1.9,5.14-1.76,5.72-1.6,6.33-1.44,7.01-.12,.18-.21,.05-.19-.11-.05-.22,1.44-7.04,1.62-6.37,1.77-5.75,1.92-5.17,2.04-4.64,2.16-4.15,2.27-3.7,2.37-3.28,2.48-2.9,2.58-2.54,2.68-2.21,2.79-1.89,2.91-1.6,3.05-1.31,3.18-1.03Z"/>
  </g>
  <g class="cls-39">
    <path id="_路径-358" class="cls-4" d="M111.11,151.3l-4.47,2.72-4.04,2.8-3.63,2.89-3.25,2.97-2.9,3.05-2.56,3.15-2.25,3.24-1.94,3.34-1.65,3.45-1.36,3.57-1.08,3.7-.79,3.85,10.88-14.44,7.76-9.82,5.33-6.28,3.49-3.69,2.17-1.91,1.26-.77,1.73-.83,.57-.45,.07-.24-.23-.18-.89-.14-2.25,.03Z"/>
  </g>
  <path class="cls-10" d="M93.52,139.02l4.23-8.36,3.63-6.58,3.1-5.07,2.63-3.81,2.22-2.77,1.87-1.92,2.39-1.92,2.41-1.55,2.44-1.2,2.56-.95,2.41-.63,2.28-.36,2.32-.11,1.97,.13,1.67,.34,1.17,.45,1.03,.62,.93,.8,.8,.94,.66,1.03,.52,1.13,.36,1.18,.18,1.18,.02,1.19-.17,1.17-.36,1.08-.56,1.03-1.03,1.31-1.02,.94-1.16,.73-1.4,.58-1.56,.44-2.06,.42-5.28,.93-3.98,.83-3.03,.82-2.75,.91-2.13,.84-3.62,1.6-1.95,.96-1.3,.75-1.53,.99-1.53,1.14-1.54,1.35-1.32,1.41-1.89,2.37-2.64,3.66Z"/>
  <path class="cls-9" d="M92.32,141.47l4.92-8.9,4.12-6.96,3.43-5.3,2.82-3.93,2.3-2.8,1.87-1.91,2.39-1.92,2.41-1.55,2.44-1.2,2.56-.95,2.41-.63,2.28-.36,2.32-.11,1.97,.13,1.67,.34,1.17,.45,1.03,.62,.93,.8,.8,.94,.66,1.03,.52,1.13,.36,1.18,.18,1.18,.02,1.19-.17,1.17-.36,1.08-.56,1.03-1.03,1.31-1.02,.94-1.16,.73-1.4,.58-1.56,.44-2.06,.42-5.28,.93-3.98,.83-3.03,.82-2.75,.91-2.13,.84-3.62,1.6-1.63,.86-2.56,1.54-2.87,1.96-1.39,1.08-1.19,1.05-1.32,1.41-1.89,2.37-2.64,3.65Z"/>
  <g class="cls-50">
    <path id="_路径-253" class="cls-52" d="M128.32,110.28l.21,.06,.1,.2-.06,.21-.2,.1-2.89,.48-2.93,.82-2.97,1.18-3.03,1.56-3.11,1.98-3.2,2.44-3.31,2.95-3.41,3.5-3.53,4.12-3.66,4.8-3.78,5.53-.18,.13-.22-.04-.13-.18,.04-.21,3.81-5.57,3.68-4.83,3.56-4.15,3.44-3.53,3.34-2.97,3.24-2.47,3.15-2,3.08-1.58,3.02-1.2,2.97-.83,2.95-.49Z"/>
  </g>
  <g class="cls-2">
    <path id="_路径-357" class="cls-4" d="M137.78,111.82l-.51,2.18-.68,1.72-.84,1.33-.98,1.02-1.22,.85-1.36,.72-1.52,.59-2.35,.67-2.31,.51-2.9,.63-4.52,1.15-2.58,.77-2.75,.94-2.72,1.07-2.6,1.22-2.44,1.39-2.06,1.5,12.58-4.26,17.87-4.41,5.62-5.87-1.71-3.71Z"/>
  </g>
  <path class="cls-10" d="M78.98,162.13l-1.77-7.5-1.71-6.23-1.64-5.11-1.58-4.13-1.51-3.29-1.43-2.57-2.08-3.09-2.12-2.73-2.17-2.4-2.22-2.09-2.43-1.95-2.41-1.63-2.39-1.33-2.38-1.06-3.18-1.38-2.8-1.49-1.74-1.14-1.47-1.21-1.22-1.26-1.01-1.41-.7-1.49-.4-1.6-.09-1.68,.18-1.62,.47-1.58,.73-1.48,1.01-1.33,1.3-1.21,1.5-.95,1.82-.72,2.18-.48,2.25-.2,2.24,.04,2.25,.28,2.2,.55,2.21,.88,2.24,1.23,2.07,1.51,2.11,1.97,2.16,2.5,1.47,2.19,1.57,2.96,1.44,3.23,1.44,3.73,1.32,3.87,1.23,4.06,1.1,4.1,.94,3.97,.79,3.9,.56,3.46,.37,3.27,.11,2.51-.1,6.31-.28,5.69-.44,5.1Z"/>
  <g class="cls-37">
    <path id="_路径-248" class="cls-9" d="M78.41,163.28l-1.77-7.5-1.71-6.23-1.64-5.11-1.58-4.13-1.51-3.29-1.43-2.57-2.08-3.09-2.12-2.73-2.17-2.4-2.22-2.09-2.43-1.95-2.41-1.63-2.39-1.33-2.38-1.06-3.18-1.38-2.8-1.49-1.74-1.14-1.47-1.21-1.22-1.26-1.01-1.41-.7-1.49-.4-1.6-.09-1.68,.18-1.62,.47-1.58,.73-1.48,1.01-1.33,1.3-1.21,1.5-.95,1.82-.72,2.18-.48,2.25-.2,2.24,.04,2.25,.28,2.2,.55,2.21,.88,2.24,1.23,2.07,1.51,2.11,1.97,2.16,2.5,1.47,2.19,1.57,2.96,1.44,3.23,1.44,3.73,1.32,3.87,1.23,4.06,1.1,4.1,.94,3.97,.79,3.9,.56,3.46,.37,3.27,.11,2.51-.1,6.31-.28,5.69-.44,5.1Z"/>
  </g>
  <g class="cls-30">
    <path id="_路径-254" class="cls-52" d="M52.22,102.63l.18-.13,.21,.03,3.22,2.23,3.01,2.49,2.82,2.76,2.63,3.04,2.44,3.34,2.26,3.66,2.08,4.01,1.89,4.37,1.68,4.78,1.47,5.2,1.25,5.67,1,6.16,.74,6.69,.45,7.26-.08,.21-.2,.09-.21-.08-.09-.2-.45-7.23-.73-6.66-.99-6.13-1.24-5.63-1.46-5.17-1.67-4.74-1.86-4.35-2.06-3.97-2.24-3.63-2.42-3.31-2.6-3.01-2.79-2.73-2.97-2.46-3.18-2.2-.13-.18,.03-.22Z"/>
  </g>
  <g class="cls-47">
    <path id="_路径-354" class="cls-4" d="M39.75,100.19l-.33,2.24v2.03s.34,1.84,.34,1.84l.63,1.7,.94,1.58,1.26,1.48,1.64,1.39,2.08,1.31,2.59,1.21,4.06,1.77,3.25,1.69,2.94,1.86,2.48,1.94,2.25,2.16,2.11,2.43,1.98,2.66,2.12,3.16,1.33,2.3,1.32,2.82,1.31,3.41,1.28,4.09,1.24,4.86,1.17,5.72,1.09,6.69-43.95-50.83,4.87-11.52Z"/>
  </g>
  <path class="cls-10" d="M79.8,140.05l.42-12.55,.05-10.11-.26-8.03-.49-6.25-.66-4.77-.78-3.54-1.22-3.97-1.29-3.33-1.35-2.77-1.22-2.02-1.25-1.65-1.26-1.33-1.28-1.04-1.45-.84-1.48-.53-1.53-.24-1.63,.04-1.64,.34-1.33,.49-1.07,.63-.85,.76-.71,.93-.51,.99-.3,1.06-.11,1.15,.14,1.53,.48,1.54,.84,1.56,2.33,3.51,3.11,4.8,3.37,5.47,3.12,5.52,1.33,2.65,1.01,2.29,1.29,3.62,1.64,5.46,2.05,7.83,2.53,10.8Z"/>
  <g class="cls-31">
    <path id="_路径-249" class="cls-9" d="M79.75,139.63l-.02-12.55-.31-10.11-.53-8.01-.71-6.23-.83-4.74-.9-3.51-1.36-3.92-1.41-3.28-1.45-2.72-1.3-1.97-1.3-1.6-1.3-1.28-1.32-.99-1.47-.79-1.5-.48-1.55-.2-1.63,.1-1.63,.4-1.31,.54-1.05,.67-.83,.79-.68,.95-.47,1-.26,1.07-.07,1.16,.2,1.53,.53,1.52,.9,1.54,2.45,3.42,3.28,4.68,3.56,5.35,3.31,5.41,1.43,2.61,1.09,2.25,1.42,3.58,1.83,5.4,2.32,7.76,2.91,10.7Z"/>
  </g>
  <g class="cls-3">
    <path id="_路径-356" class="cls-4" d="M57.69,79.86l-.33,2.02v1.84l.3,1.7,.6,1.59,.91,1.5,2.5,3.59,3.74,5.84,2.03,3.48,2.08,3.88,1.93,4.01,1.7,4.11,.98,2.8,.76,2.71,.56,2.63-16.77-29.8-3.6-7.37,2.61-4.55Z"/>
  </g>
  <path class="cls-10" d="M78.67,182.85l-3.37-4.49-3.36-3.96-3.37-3.47-3.37-3.02-3.38-2.59-3.39-2.2-3.41-1.83-3.45-1.49-2.87-.94-2.57-.64-2.3-.36-2.06-.13-2.82,.14-2.36,.43-1.97,.68-1.85,.98-1.44,1.08-1.09,1.17-.86,1.35-.48,1.27-.16,1.23,.16,1.61,.41,1.39,.67,1.21,.9,1.04,1.12,.88,1.39,.71,1.49,.49,1.71,.31,1.96,.11,5.01-.1h2.83s3.12,.14,3.12,.14l3.16,.37,3.31,.69,2.17,.66,2.2,.88,2.22,1.12,2.66,1.66,2.77,2.05,2.88,2.47,3.01,2.94,3.14,3.46,3.28,4.03-1.62-11.31Z"/>
  <g class="cls-48">
    <path id="_路径-250" class="cls-9" d="M78.67,184l-3.37-4.49-3.36-3.96-3.37-3.47-3.37-3.02-3.38-2.59-3.39-2.2-3.41-1.83-3.45-1.49-2.87-.94-2.57-.64-2.3-.36-2.06-.13-2.82,.14-2.36,.43-1.97,.68-1.85,.98-1.44,1.08-1.09,1.17-.86,1.35-.48,1.27-.16,1.23,.16,1.61,.41,1.39,.67,1.21,.9,1.04,1.12,.88,1.39,.71,1.49,.49,1.71,.31,1.96,.11,5.01-.1h2.83s3.12,.14,3.12,.14l3.16,.37,3.31,.69,2.17,.66,2.2,.88,2.22,1.12,2.66,1.66,2.77,2.05,2.88,2.47,3.01,2.94,3.14,3.46,3.28,4.03-1.62-11.31Z"/>
  </g>
  <g class="cls-46">
    <path id="_路径-355" class="cls-4" d="M29.4,169.26l1.13,1.07,1.28,.85,1.44,.64,1.63,.42,2.58,.32,2.74,.13h5.48l2.58,.05,2.63,.22,2.68,.41,2.62,.64,2.74,.96,2.87,1.33,2.72,1.61,2.94,2.14,3.17,2.76,2.94,2.98,3.21,3.75,3.52,4.64-9.34-4.02-40.84-16.57-.71-4.32Z"/>
  </g>
  <path id="_路径-245" class="cls-52" d="M65.3,83.74l.21-.06,.2,.1,1.41,1.87,1.38,2.18,1.36,2.52,1.32,2.89,1.49,3.87,1.42,4.4,1.32,4.97,1.1,5.01,.99,5.44,.87,5.91,.07,.53,.64,5.66,.48,5.72,.33,5.71,.17,5.51,.03,5.41-.13,4.97-.29,4.78-.41,4.08-.05,.41-.49,4.87-.17,4.85,.16,4.83,.48,4.82,.8,4.83,1.13,4.85,1.47,4.87,1.82,4.9v.22l-.16,.16h-.22l-.16-.16-1.81-4.87-1.47-4.83-1.14-4.81-.82-4.79-.49-4.79-.18-4.8,.13-4.82,.45-4.84,.07-.57,.44-4.06,.3-4.79,.14-4.98-.02-5.45-.17-5.56-.33-5.76-.49-5.78-.64-5.72-.14-1.07-.86-5.79-.99-5.33-1.09-4.9-1.31-4.87-1.4-4.31-1.47-3.79-1.74-3.69-1.79-3.06-1.82-2.5-.06-.21,.1-.2Z"/>
  <path id="_路径-252" class="cls-52" d="M39.78,164.61l4.97,.69,4.63,1,4.32,1.3,4.04,1.57,3.78,1.85,3.53,2.13,3.31,2.42,3.09,2.7,2.89,3,2.68,3.32,2.49,3.67,.03,.22-.13,.18-.22,.03-.18-.13-2.46-3.62-2.65-3.29-2.85-2.97-3.06-2.67-3.26-2.39-3.49-2.11-3.74-1.83-3.99-1.56-4.28-1.27-4.59-.99-4.91-.68-.2-.1-.06-.21,.09-.18,.18-.08h.05Z"/>
  <path class="cls-5" d="M375.92,116.1l-.13,2.5-.36,2.39-.59,2.29-.81,2.2-1.03,2.12-1.2,1.97-1.38,1.85-1.56,1.72-1.72,1.56-1.85,1.38-1.98,1.2-2.13,1.03-2.21,.81-2.29,.59-2.4,.37-2.51,.13-2.51-.13-2.39-.37-2.29-.59-2.21-.81-2.13-1.03-1.98-1.2-1.85-1.38-1.72-1.56-1.56-1.72-1.38-1.85-1.2-1.97-1.03-2.12-.81-2.2-.59-2.29-.36-2.39-.14-2.5,.14-2.5,.36-2.39,.59-2.29,.81-2.2,1.03-2.12,1.2-1.97,1.38-1.85,1.56-1.72,1.72-1.56,1.85-1.38,1.98-1.2,2.13-1.03,2.21-.81,2.29-.59,2.39-.37,2.51-.13,2.51,.13,2.4,.37,2.29,.59,2.21,.81,2.13,1.03,1.98,1.2,1.85,1.38,1.72,1.56,1.56,1.72,1.38,1.85,1.2,1.97,1.03,2.12,.81,2.2,.59,2.29,.36,2.39,.13,2.5Z"/>
  <g class="cls-42">
    <path id="_路径-306" class="cls-14" d="M351.77,117.26l20.68-14.82,7.32,12.8-3.86,11.15-24.14-9.13Z"/>
  </g>
</svg>